<svg xmlns="http://www.w3.org/2000/svg" xmlns:xlink="http://www.w3.org/1999/xlink" viewBox="0 0 375 667">
  <defs>
    <style>
      .cls-1 {
        clip-path: url(#clip-iPhone_6_7_8_2);
      }

      .cls-2 {
        fill: #b2ced6;
      }

      .cls-3, .cls-5 {
        fill: #364c53;
      }

      .cls-3 {
        font-size: 26px;
        font-family: SegoeUI-Bold, Segoe UI;
        font-weight: 700;
      }

      .cls-4, .cls-6, .cls-7 {
        fill: none;
      }

      .cls-4 {
        stroke: #66757a;
        stroke-width: 4px;
      }

      .cls-5 {
        font-size: 14px;
        font-family: SegoeUI, Segoe UI;
      }

      .cls-6 {
        stroke: #fff;
      }

      .cls-8 {
        fill-rule: evenodd;
        opacity: 0.54;
      }

      .cls-9 {
        fill: #fff;
      }

      .cls-10 {
        filter: url(#Rectangle_1);
      }
    </style>
    <filter id="Rectangle_1" x="-9" y="-6" width="393" height="371" filterUnits="userSpaceOnUse">
      <feOffset dy="3" input="SourceAlpha"/>
      <feGaussianBlur stdDeviation="3" result="blur"/>
      <feFlood flood-opacity="0.278"/>
      <feComposite operator="in" in2="blur"/>
      <feComposite in="SourceGraphic"/>
    </filter>
    <clipPath id="clip-iPhone_6_7_8_2">
      <rect width="375" height="667"/>
    </clipPath>
  </defs>
  <g id="iPhone_6_7_8_2" data-name="iPhone 6/7/8 – 2" class="cls-1">
    <rect class="cls-9" width="375" height="667"/>
    <g class="cls-10" transform="matrix(1, 0, 0, 1, 0, 0)">
      <rect id="Rectangle_1-2" data-name="Rectangle 1" class="cls-2" width="375" height="353"/>
    </g>
    <text id="Score" class="cls-3" transform="translate(148 83)"><tspan x="0" y="0">Score</tspan></text>
    <g id="Group_14" data-name="Group 14" transform="translate(168 -6)">
      <line id="Line_9" data-name="Line 9" class="cls-4" x2="18" y2="18" transform="translate(162.5 30.5)"/>
      <line id="Line_10" data-name="Line 10" class="cls-4" x2="18" y2="18" transform="translate(180.5 30.5) rotate(90)"/>
    </g>
    <g id="Group_24" data-name="Group 24" transform="translate(1 -348)">
      <text id="Player_1_X_:_1" data-name="Player 1 (X): 1" class="cls-5" transform="translate(43 478)"><tspan x="0" y="0">Player 1 (X): 1</tspan></text>
      <text id="Draws:_5" data-name="Draws: 5" class="cls-5" transform="translate(279 478)"><tspan x="0" y="0">Draws: 5</tspan></text>
      <text id="Computer_O_:_0" data-name="Computer (O): 0" class="cls-5" transform="translate(154 478)"><tspan x="0" y="0">Computer (O): 0</tspan></text>
    </g>
    <g id="Group_25" data-name="Group 25" transform="translate(1 -298)">
      <text id="Player_1_X_:_1-2" data-name="Player 1 (X): 1" class="cls-5" transform="translate(43 478)"><tspan x="0" y="0">Player 1 (X): 1</tspan></text>
      <text id="Draws:_5-2" data-name="Draws: 5" class="cls-5" transform="translate(279 478)"><tspan x="0" y="0">Draws: 5</tspan></text>
      <text id="Computer_O_:_0-2" data-name="Computer (O): 0" class="cls-5" transform="translate(154 478)"><tspan x="0" y="0">Computer (O): 0</tspan></text>
    </g>
    <g id="Group_26" data-name="Group 26" transform="translate(1 -248)">
      <text id="Player_1_X_:_1-3" data-name="Player 1 (X): 1" class="cls-5" transform="translate(43 478)"><tspan x="0" y="0">Player 1 (X): 1</tspan></text>
      <text id="Draws:_5-3" data-name="Draws: 5" class="cls-5" transform="translate(279 478)"><tspan x="0" y="0">Draws: 5</tspan></text>
      <text id="Computer_O_:_0-3" data-name="Computer (O): 0" class="cls-5" transform="translate(154 478)"><tspan x="0" y="0">Computer (O): 0</tspan></text>
    </g>
    <g id="Group_27" data-name="Group 27" transform="translate(1 -198)">
      <text id="Player_1_X_:_1-4" data-name="Player 1 (X): 1" class="cls-5" transform="translate(43 478)"><tspan x="0" y="0">Player 1 (X): 1</tspan></text>
      <text id="Draws:_5-4" data-name="Draws: 5" class="cls-5" transform="translate(279 478)"><tspan x="0" y="0">Draws: 5</tspan></text>
      <text id="Computer_O_:_0-4" data-name="Computer (O): 0" class="cls-5" transform="translate(154 478)"><tspan x="0" y="0">Computer (O): 0</tspan></text>
    </g>
    <g id="Group_28" data-name="Group 28" transform="translate(1 -148)">
      <text id="Player_1_X_:_1-5" data-name="Player 1 (X): 1" class="cls-5" transform="translate(43 478)"><tspan x="0" y="0">Player 1 (X): 1</tspan></text>
      <text id="Draws:_5-5" data-name="Draws: 5" class="cls-5" transform="translate(279 478)"><tspan x="0" y="0">Draws: 5</tspan></text>
      <text id="Computer_O_:_0-5" data-name="Computer (O): 0" class="cls-5" transform="translate(154 478)"><tspan x="0" y="0">Computer (O): 0</tspan></text>
    </g>
    <line id="Line_14" data-name="Line 14" class="cls-6" x2="375" transform="translate(0.5 202.5)"/>
    <line id="Line_15" data-name="Line 15" class="cls-6" x2="375" transform="translate(0.5 152.5)"/>
    <line id="Line_16" data-name="Line 16" class="cls-6" x2="375" transform="translate(0.5 102.5)"/>
    <line id="Line_18" data-name="Line 18" class="cls-6" x2="375" transform="translate(0.5 302.5)"/>
    <line id="Line_19" data-name="Line 19" class="cls-6" x2="375" transform="translate(0.5 252.5)"/>
    <rect id="rectangle" class="cls-7" width="24" height="24" transform="translate(20 22)"/>
    <g id="Group_29" data-name="Group 29" transform="translate(9 10)">
      <path id="path" class="cls-8" d="M25,13.188H8.988l7.35-7.35L14.5,4,4,14.5,14.5,25l1.837-1.837-7.35-7.35H25V13.188Z" transform="translate(20 11)"/>
    </g>
  </g>
</svg>
