<svg xmlns="http://www.w3.org/2000/svg" xmlns:xlink="http://www.w3.org/1999/xlink" viewBox="0 0 375 667">
  <defs>
    <style>
      .cls-1 {
        clip-path: url(#clip-iPhone_6_7_8_5);
      }

      .cls-2 {
        opacity: 0.55;
      }

      .cls-10, .cls-3, .cls-4 {
        fill: #fff;
      }

      .cls-3, .cls-4 {
        stroke: #707070;
      }

      .cls-4 {
        stroke-width: 3px;
      }

      .cls-5, .cls-7, .cls-9 {
        fill: none;
      }

      .cls-5 {
        stroke: #b72c48;
      }

      .cls-5, .cls-7 {
        stroke-width: 2px;
      }

      .cls-6 {
        fill: #b72c48;
      }

      .cls-7 {
        stroke: #fff;
      }

      .cls-8 {
        stroke: none;
      }
    </style>
    <clipPath id="clip-iPhone_6_7_8_5">
      <rect width="375" height="667"/>
    </clipPath>
  </defs>
  <g id="iPhone_6_7_8_5" data-name="iPhone 6/7/8 – 5" class="cls-1">
    <rect class="cls-10" width="375" height="667"/>
    <rect id="Rectangle_5" data-name="Rectangle 5" class="cls-2" width="375" height="667"/>
    <g id="Rectangle_6" data-name="Rectangle 6" class="cls-3" transform="translate(61 182)">
      <rect class="cls-8" width="275" height="122"/>
      <rect class="cls-9" x="0.5" y="0.5" width="274" height="121"/>
    </g>
    <g id="Rectangle_7" data-name="Rectangle 7" class="cls-4" transform="translate(111 210)">
      <rect class="cls-8" width="175" height="68"/>
      <rect class="cls-9" x="1.5" y="1.5" width="172" height="65"/>
    </g>
    <path id="user" class="cls-5" d="M224.053,155.673a5.673,5.673,0,0,1-1.662,4.314,6.139,6.139,0,0,1-4.416,1.582h-19.9a6.139,6.139,0,0,1-4.416-1.582A5.673,5.673,0,0,1,192,155.673q0-1.207.08-2.356a23.187,23.187,0,0,1,.319-2.481,19.294,19.294,0,0,1,.6-2.47,11.7,11.7,0,0,1,.979-2.22,8,8,0,0,1,1.411-1.844,5.939,5.939,0,0,1,1.946-1.218,6.837,6.837,0,0,1,2.538-.455,2.782,2.782,0,0,1,.956.489q.751.489,1.7,1.093a10.757,10.757,0,0,0,2.459,1.093,9.68,9.68,0,0,0,6.078,0,10.757,10.757,0,0,0,2.459-1.093q.945-.6,1.7-1.093a2.782,2.782,0,0,1,.956-.489,6.837,6.837,0,0,1,2.538.455,5.939,5.939,0,0,1,1.946,1.218,8,8,0,0,1,1.411,1.844,11.7,11.7,0,0,1,.979,2.22,19.3,19.3,0,0,1,.6,2.47,23.186,23.186,0,0,1,.319,2.481Q224.053,154.467,224.053,155.673Zm-7.285-21.931a8.744,8.744,0,0,1-8.742,8.742h0a8.479,8.479,0,0,1-5.642-2.063c-.1-.082-.321-.283-.536-.5a8.741,8.741,0,1,1,14.922-6.181Z" transform="translate(12 101)"/>
    <rect id="Rectangle_8" data-name="Rectangle 8" class="cls-6" width="74" height="68" transform="translate(113 209)"/>
    <path id="user-2" data-name="user" class="cls-7" d="M232.818,164.061a7.224,7.224,0,0,1-2.116,5.494,7.818,7.818,0,0,1-5.624,2.015H199.74a7.818,7.818,0,0,1-5.624-2.015A7.224,7.224,0,0,1,192,164.061q0-1.536.1-3a29.525,29.525,0,0,1,.406-3.16,24.573,24.573,0,0,1,.768-3.145,14.9,14.9,0,0,1,1.247-2.826,10.192,10.192,0,0,1,1.8-2.348,7.563,7.563,0,0,1,2.479-1.551,8.706,8.706,0,0,1,3.232-.58,3.542,3.542,0,0,1,1.218.623q.957.623,2.16,1.391a13.7,13.7,0,0,0,3.131,1.392,12.327,12.327,0,0,0,7.74,0,13.7,13.7,0,0,0,3.131-1.392q1.2-.768,2.16-1.391a3.542,3.542,0,0,1,1.218-.623,8.706,8.706,0,0,1,3.232.58,7.563,7.563,0,0,1,2.479,1.551,10.192,10.192,0,0,1,1.8,2.348,14.9,14.9,0,0,1,1.247,2.826,24.575,24.575,0,0,1,.768,3.145,29.525,29.525,0,0,1,.406,3.16Q232.818,162.524,232.818,164.061Zm-9.277-27.929a11.135,11.135,0,0,1-11.132,11.132h0a10.8,10.8,0,0,1-7.185-2.627c-.128-.1-.409-.361-.683-.635a11.131,11.131,0,1,1,19-7.871Z" transform="translate(-62 96)"/>
  </g>
</svg>
