<svg xmlns="http://www.w3.org/2000/svg" xmlns:xlink="http://www.w3.org/1999/xlink" viewBox="0 0 132 76">
  <defs>
    <style>
      .cls-1 {
        clip-path: url(#clip-User_sprite);
      }

      .cls-2 {
        fill: none;
      }

      .cls-3, .cls-4, .cls-5 {
        stroke: none;
      }

      .cls-4 {
        fill: #b72c48;
      }

      .cls-5 {
        fill: #fff;
      }
    </style>
    <clipPath id="clip-User_sprite">
      <rect width="132" height="76"/>
    </clipPath>
  </defs>
  <g id="User_sprite" class="cls-1">
    <g id="Group_33" data-name="Group 33" transform="translate(-1 -1)">
      <g id="Group_31" data-name="Group 31" transform="translate(-2 -7)">
        <g id="user" class="cls-2" transform="translate(-189 -117)">
          <path class="cls-3" d="M258,188.746q0,5.677-3.422,8.965A12.573,12.573,0,0,1,245.484,201H204.516a12.573,12.573,0,0,1-9.094-3.288Q192,194.424,192,188.746q0-2.507.164-4.9a48.613,48.613,0,0,1,.656-5.157,40.408,40.408,0,0,1,1.242-5.133,24.435,24.435,0,0,1,2.016-4.613,16.618,16.618,0,0,1,2.906-3.832,12.213,12.213,0,0,1,4.008-2.531,13.962,13.962,0,0,1,5.227-.946,5.705,5.705,0,0,1,1.969,1.017q1.547,1.017,3.492,2.271a22.051,22.051,0,0,0,5.063,2.271,19.757,19.757,0,0,0,12.516,0,22.048,22.048,0,0,0,5.063-2.271q1.945-1.254,3.492-2.271a5.706,5.706,0,0,1,1.969-1.017,13.962,13.962,0,0,1,5.227.946,12.213,12.213,0,0,1,4.008,2.531,16.617,16.617,0,0,1,2.906,3.832,24.435,24.435,0,0,1,2.016,4.613,40.405,40.405,0,0,1,1.242,5.133,48.612,48.612,0,0,1,.656,5.157Q258,186.239,258,188.746Zm-15-45.579a17.586,17.586,0,0,1-5.273,12.845A17.263,17.263,0,0,1,225,161.335h-.005a17.363,17.363,0,0,1-11.617-4.287c-.207-.17-.661-.588-1.1-1.036a18.28,18.28,0,0,1,0-25.69,17.876,17.876,0,0,1,25.453,0A17.586,17.586,0,0,1,243,143.167Z"/>
          <path class="cls-4" d="M 245.484375 198 C 248.4883117675781 198 250.7829437255859 197.1981964111328 252.4994659423828 195.5487213134766 C 254.1820678710938 193.9319152832031 255 191.7068939208984 255 188.7464904785156 C 255 187.1508483886719 254.9471588134766 185.5725402832031 254.8429565429688 184.0553283691406 C 254.741455078125 182.5770568847656 254.5339050292969 180.9496154785156 254.2260437011719 179.21826171875 C 253.9222106933594 177.5099639892578 253.535888671875 175.9112548828125 253.0777587890625 174.4664459228516 C 252.6422424316406 173.0927886962891 252.0467681884766 171.7310791015625 251.307861328125 170.4190826416016 C 250.6106567382813 169.1810760498047 249.81103515625 168.1223602294922 248.9312133789063 167.2723846435547 C 248.1238708496094 166.492431640625 247.1020965576172 165.8521575927734 245.8943176269531 165.3693695068359 C 244.8167419433594 164.9386444091797 243.6063842773438 164.6962280273438 242.2899932861328 164.6468963623047 C 242.1185455322266 164.743896484375 241.8519744873047 164.904052734375 241.460693359375 165.1613464355469 C 240.4252777099609 165.8421783447266 239.2425689697266 166.6112670898438 237.9455718994141 167.4471435546875 C 236.4173278808594 168.4321441650391 234.5341339111328 169.2830657958984 232.1884613037109 170.0484466552734 C 229.8191070556641 170.8216400146484 227.4005432128906 171.2136688232422 224.9999847412109 171.2136688232422 C 222.5994415283203 171.2136688232422 220.1808929443359 170.8216400146484 217.8115692138672 170.0484771728516 C 215.4659576416016 169.2830810546875 213.5827941894531 168.4322052001953 212.0545196533203 167.4472351074219 C 210.7594757080078 166.6126251220703 209.5767822265625 165.8435363769531 208.5391387939453 165.1612701416016 C 208.1479644775391 164.9040374755859 207.8814392089844 164.743896484375 207.7100067138672 164.6469116210938 C 206.3936004638672 164.6962280273438 205.1832885742188 164.9386444091797 204.1057434082031 165.3693695068359 C 202.8979187011719 165.8521575927734 201.8761444091797 166.492431640625 201.0687866210938 167.2723693847656 C 200.1890106201172 168.122314453125 199.3893890380859 169.1810302734375 198.6920928955078 170.419189453125 C 197.9532318115234 171.7310638427734 197.3577575683594 173.0927581787109 196.9222106933594 174.4664306640625 C 196.4640045166016 175.9116973876953 196.0776824951172 177.5104217529297 195.7739868164063 179.2182159423828 C 195.4661102294922 180.9494934082031 195.2585296630859 182.5769653320313 195.1569976806641 184.0554656982422 C 195.0528259277344 185.5717315673828 195.0000152587891 187.1500091552734 195.0000152587891 188.7464904785156 C 195.0000152587891 191.7069091796875 195.8179321289063 193.9319305419922 197.5005645751953 195.5487670898438 C 199.2170562744141 197.1981811523438 201.5116882324219 198 204.5156097412109 198 L 245.484375 198 M 224.9999847412109 158.3346405029297 C 229.1734924316406 158.3346405029297 232.6393127441406 156.8842926025391 235.5954437255859 153.9007568359375 C 238.5592193603516 150.9094085693359 239.9999542236328 147.3984832763672 239.9999542236328 143.1673583984375 C 239.9999542236328 138.9362182617188 238.5592193603516 135.4252777099609 235.5954437255859 132.4339447021484 C 232.6392974853516 129.4503631591797 229.1734924316406 128 224.9999847412109 128 C 220.8264617919922 128 217.3606567382813 129.4503479003906 214.4045562744141 132.4339447021484 C 211.4407348632813 135.4253082275391 209.9999847412109 138.9362487792969 209.9999847412109 143.1673583984375 C 209.9999847412109 147.3984527587891 211.4407348632813 150.9093780517578 214.4045104980469 153.9007110595703 C 214.8079986572266 154.3079223632813 215.1792449951172 154.6453247070313 215.2795867919922 154.7275695800781 L 215.2933197021484 154.7388305664063 L 215.3069152832031 154.750244140625 C 218.2195587158203 157.1956787109375 221.2980194091797 158.3346405029297 224.9949798583984 158.3346405029297 L 224.9999847412109 158.3346405029297 M 245.484375 201 L 204.5156097412109 201 C 200.734375 201 197.703125 199.9040069580078 195.4219055175781 197.7119140625 C 193.140625 195.5198364257813 192.0000152587891 192.5314025878906 192.0000152587891 188.7464904785156 C 192.0000152587891 187.0748596191406 192.0546264648438 185.4426574707031 192.1640472412109 183.849853515625 C 192.2734222412109 182.2570953369141 192.4922027587891 180.5381164550781 192.8203277587891 178.6929626464844 C 193.1484375 176.8478546142578 193.5625 175.1368255615234 194.0625 173.5597686767578 C 194.5625152587891 171.9827423095703 195.2343902587891 170.4451293945313 196.0781555175781 168.9469909667969 C 196.9218902587891 167.4488067626953 197.8906402587891 166.1714172363281 198.984375 165.1147766113281 C 200.078125 164.0581512451172 201.4140777587891 163.2144927978516 202.9922180175781 162.5836639404297 C 204.5703125 161.9528656005859 206.3125 161.6374664306641 208.2187805175781 161.6374664306641 C 208.5000457763672 161.6374664306641 209.15625 161.9765472412109 210.1874694824219 162.6546936035156 C 211.21875 163.3327789306641 212.3827667236328 164.0897369384766 213.6796569824219 164.925537109375 C 214.9765777587891 165.7613983154297 216.6640777587891 166.5183563232422 218.7422027587891 167.1964569091797 C 220.8202972412109 167.8746032714844 222.9062347412109 168.2136688232422 224.9999847412109 168.2136688232422 C 227.0937042236328 168.2136688232422 229.1796875 167.8746032714844 231.2577819824219 167.1964569091797 C 233.3359375 166.5183563232422 235.0234680175781 165.7613983154297 236.3202972412109 164.925537109375 C 237.6171722412109 164.0897369384766 238.7812194824219 163.3327789306641 239.8124694824219 162.6546936035156 C 240.8437347412109 161.9765472412109 241.4999847412109 161.6374664306641 241.7812347412109 161.6374664306641 C 243.6874847412109 161.6374664306641 245.4297027587891 161.9528656005859 247.0078125 162.5836639404297 C 248.5858917236328 163.2144927978516 249.921875 164.0581512451172 251.0156097412109 165.1147766113281 C 252.1093444824219 166.1714172363281 253.0781402587891 167.4488067626953 253.9218444824219 168.9469909667969 C 254.7655944824219 170.4451293945313 255.4374694824219 171.9827423095703 255.9374694824219 173.5597686767578 C 256.4375305175781 175.1368255615234 256.8515319824219 176.8478546142578 257.1796875 178.6929626464844 C 257.5077819824219 180.5381164550781 257.7265625 182.2570953369141 257.8359069824219 183.849853515625 C 257.9453125 185.4426574707031 258 187.0748596191406 258 188.7464904785156 C 258 192.5314025878906 256.8593444824219 195.5198364257813 254.5780792236328 197.7119140625 C 252.296875 199.9040069580078 249.2656555175781 201 245.484375 201 Z M 224.9999847412109 161.3346405029297 C 224.9999847412109 161.3346405029297 224.9999847412109 161.3346405029297 224.9949798583984 161.3346405029297 C 220.6573333740234 161.3346405029297 216.8696594238281 159.9794769287109 213.3778839111328 157.0478210449219 C 213.1709747314453 156.8782348632813 212.7164611816406 156.4593505859375 212.2734527587891 156.0122375488281 C 208.7578125 152.4639129638672 206.9999847412109 148.1822814941406 206.9999847412109 143.1673583984375 C 206.9999847412109 138.1524047851563 208.7578125 133.8707733154297 212.2734527587891 130.3224487304688 C 215.7890777587891 126.7741470336914 220.0312347412109 125 224.9999847412109 125 C 229.9687194824219 125 234.2108917236328 126.7741470336914 237.7265472412109 130.3224487304688 C 241.2421875 133.8707733154297 242.9999542236328 138.1524047851563 242.9999542236328 143.1673583984375 C 242.9999542236328 148.1822814941406 241.2421875 152.4639129638672 237.7265472412109 156.0122375488281 C 234.2108917236328 159.5605010986328 229.9687194824219 161.3346405029297 224.9999847412109 161.3346405029297 Z"/>
        </g>
      </g>
      <g id="Group_32" data-name="Group 32" transform="translate(64 -7)">
        <g id="user-2" data-name="user" class="cls-2" transform="translate(-189 -117)">
          <path class="cls-3" d="M258,188.746q0,5.677-3.422,8.965A12.573,12.573,0,0,1,245.484,201H204.516a12.573,12.573,0,0,1-9.094-3.288Q192,194.424,192,188.746q0-2.507.164-4.9a48.613,48.613,0,0,1,.656-5.157,40.408,40.408,0,0,1,1.242-5.133,24.435,24.435,0,0,1,2.016-4.613,16.618,16.618,0,0,1,2.906-3.832,12.213,12.213,0,0,1,4.008-2.531,13.962,13.962,0,0,1,5.227-.946,5.705,5.705,0,0,1,1.969,1.017q1.547,1.017,3.492,2.271a22.051,22.051,0,0,0,5.063,2.271,19.757,19.757,0,0,0,12.516,0,22.048,22.048,0,0,0,5.063-2.271q1.945-1.254,3.492-2.271a5.706,5.706,0,0,1,1.969-1.017,13.962,13.962,0,0,1,5.227.946,12.213,12.213,0,0,1,4.008,2.531,16.617,16.617,0,0,1,2.906,3.832,24.435,24.435,0,0,1,2.016,4.613,40.405,40.405,0,0,1,1.242,5.133,48.612,48.612,0,0,1,.656,5.157Q258,186.239,258,188.746Zm-15-45.579a17.586,17.586,0,0,1-5.273,12.845A17.263,17.263,0,0,1,225,161.335h-.005a17.363,17.363,0,0,1-11.617-4.287c-.207-.17-.661-.588-1.1-1.036a18.28,18.28,0,0,1,0-25.69,17.876,17.876,0,0,1,25.453,0A17.586,17.586,0,0,1,243,143.167Z"/>
          <path class="cls-5" d="M 245.484375 198 C 248.4883117675781 198 250.7829437255859 197.1981964111328 252.4994659423828 195.5487213134766 C 254.1820678710938 193.9319152832031 255 191.7068939208984 255 188.7464904785156 C 255 187.1508483886719 254.9471588134766 185.5725402832031 254.8429565429688 184.0553283691406 C 254.741455078125 182.5770568847656 254.5339050292969 180.9496154785156 254.2260437011719 179.21826171875 C 253.9222106933594 177.5099639892578 253.535888671875 175.9112548828125 253.0777587890625 174.4664459228516 C 252.6422424316406 173.0927886962891 252.0467681884766 171.7310791015625 251.307861328125 170.4190826416016 C 250.6106567382813 169.1810760498047 249.81103515625 168.1223602294922 248.9312133789063 167.2723846435547 C 248.1238708496094 166.492431640625 247.1020965576172 165.8521575927734 245.8943176269531 165.3693695068359 C 244.8167419433594 164.9386444091797 243.6063842773438 164.6962280273438 242.2899932861328 164.6468963623047 C 242.1185455322266 164.743896484375 241.8519744873047 164.904052734375 241.460693359375 165.1613464355469 C 240.4252777099609 165.8421783447266 239.2425689697266 166.6112670898438 237.9455718994141 167.4471435546875 C 236.4173278808594 168.4321441650391 234.5341339111328 169.2830657958984 232.1884613037109 170.0484466552734 C 229.8191070556641 170.8216400146484 227.4005432128906 171.2136688232422 224.9999847412109 171.2136688232422 C 222.5994415283203 171.2136688232422 220.1808929443359 170.8216400146484 217.8115692138672 170.0484771728516 C 215.4659576416016 169.2830810546875 213.5827941894531 168.4322052001953 212.0545196533203 167.4472351074219 C 210.7594757080078 166.6126251220703 209.5767822265625 165.8435363769531 208.5391387939453 165.1612701416016 C 208.1479644775391 164.9040374755859 207.8814392089844 164.743896484375 207.7100067138672 164.6469116210938 C 206.3936004638672 164.6962280273438 205.1832885742188 164.9386444091797 204.1057434082031 165.3693695068359 C 202.8979187011719 165.8521575927734 201.8761444091797 166.492431640625 201.0687866210938 167.2723693847656 C 200.1890106201172 168.122314453125 199.3893890380859 169.1810302734375 198.6920928955078 170.419189453125 C 197.9532318115234 171.7310638427734 197.3577575683594 173.0927581787109 196.9222106933594 174.4664306640625 C 196.4640045166016 175.9116973876953 196.0776824951172 177.5104217529297 195.7739868164063 179.2182159423828 C 195.4661102294922 180.9494934082031 195.2585296630859 182.5769653320313 195.1569976806641 184.0554656982422 C 195.0528259277344 185.5717315673828 195.0000152587891 187.1500091552734 195.0000152587891 188.7464904785156 C 195.0000152587891 191.7069091796875 195.8179321289063 193.9319305419922 197.5005645751953 195.5487670898438 C 199.2170562744141 197.1981811523438 201.5116882324219 198 204.5156097412109 198 L 245.484375 198 M 224.9999847412109 158.3346405029297 C 229.1734924316406 158.3346405029297 232.6393127441406 156.8842926025391 235.5954437255859 153.9007568359375 C 238.5592193603516 150.9094085693359 239.9999542236328 147.3984832763672 239.9999542236328 143.1673583984375 C 239.9999542236328 138.9362182617188 238.5592193603516 135.4252777099609 235.5954437255859 132.4339447021484 C 232.6392974853516 129.4503631591797 229.1734924316406 128 224.9999847412109 128 C 220.8264617919922 128 217.3606567382813 129.4503479003906 214.4045562744141 132.4339447021484 C 211.4407348632813 135.4253082275391 209.9999847412109 138.9362487792969 209.9999847412109 143.1673583984375 C 209.9999847412109 147.3984527587891 211.4407348632813 150.9093780517578 214.4045104980469 153.9007110595703 C 214.8079986572266 154.3079223632813 215.1792449951172 154.6453247070313 215.2795867919922 154.7275695800781 L 215.2933197021484 154.7388305664063 L 215.3069152832031 154.750244140625 C 218.2195587158203 157.1956787109375 221.2980194091797 158.3346405029297 224.9949798583984 158.3346405029297 L 224.9999847412109 158.3346405029297 M 245.484375 201 L 204.5156097412109 201 C 200.734375 201 197.703125 199.9040069580078 195.4219055175781 197.7119140625 C 193.140625 195.5198364257813 192.0000152587891 192.5314025878906 192.0000152587891 188.7464904785156 C 192.0000152587891 187.0748596191406 192.0546264648438 185.4426574707031 192.1640472412109 183.849853515625 C 192.2734222412109 182.2570953369141 192.4922027587891 180.5381164550781 192.8203277587891 178.6929626464844 C 193.1484375 176.8478546142578 193.5625 175.1368255615234 194.0625 173.5597686767578 C 194.5625152587891 171.9827423095703 195.2343902587891 170.4451293945313 196.0781555175781 168.9469909667969 C 196.9218902587891 167.4488067626953 197.8906402587891 166.1714172363281 198.984375 165.1147766113281 C 200.078125 164.0581512451172 201.4140777587891 163.2144927978516 202.9922180175781 162.5836639404297 C 204.5703125 161.9528656005859 206.3125 161.6374664306641 208.2187805175781 161.6374664306641 C 208.5000457763672 161.6374664306641 209.15625 161.9765472412109 210.1874694824219 162.6546936035156 C 211.21875 163.3327789306641 212.3827667236328 164.0897369384766 213.6796569824219 164.925537109375 C 214.9765777587891 165.7613983154297 216.6640777587891 166.5183563232422 218.7422027587891 167.1964569091797 C 220.8202972412109 167.8746032714844 222.9062347412109 168.2136688232422 224.9999847412109 168.2136688232422 C 227.0937042236328 168.2136688232422 229.1796875 167.8746032714844 231.2577819824219 167.1964569091797 C 233.3359375 166.5183563232422 235.0234680175781 165.7613983154297 236.3202972412109 164.925537109375 C 237.6171722412109 164.0897369384766 238.7812194824219 163.3327789306641 239.8124694824219 162.6546936035156 C 240.8437347412109 161.9765472412109 241.4999847412109 161.6374664306641 241.7812347412109 161.6374664306641 C 243.6874847412109 161.6374664306641 245.4297027587891 161.9528656005859 247.0078125 162.5836639404297 C 248.5858917236328 163.2144927978516 249.921875 164.0581512451172 251.0156097412109 165.1147766113281 C 252.1093444824219 166.1714172363281 253.0781402587891 167.4488067626953 253.9218444824219 168.9469909667969 C 254.7655944824219 170.4451293945313 255.4374694824219 171.9827423095703 255.9374694824219 173.5597686767578 C 256.4375305175781 175.1368255615234 256.8515319824219 176.8478546142578 257.1796875 178.6929626464844 C 257.5077819824219 180.5381164550781 257.7265625 182.2570953369141 257.8359069824219 183.849853515625 C 257.9453125 185.4426574707031 258 187.0748596191406 258 188.7464904785156 C 258 192.5314025878906 256.8593444824219 195.5198364257813 254.5780792236328 197.7119140625 C 252.296875 199.9040069580078 249.2656555175781 201 245.484375 201 Z M 224.9999847412109 161.3346405029297 C 224.9999847412109 161.3346405029297 224.9999847412109 161.3346405029297 224.9949798583984 161.3346405029297 C 220.6573333740234 161.3346405029297 216.8696594238281 159.9794769287109 213.3778839111328 157.0478210449219 C 213.1709747314453 156.8782348632813 212.7164611816406 156.4593505859375 212.2734527587891 156.0122375488281 C 208.7578125 152.4639129638672 206.9999847412109 148.1822814941406 206.9999847412109 143.1673583984375 C 206.9999847412109 138.1524047851563 208.7578125 133.8707733154297 212.2734527587891 130.3224487304688 C 215.7890777587891 126.7741470336914 220.0312347412109 125 224.9999847412109 125 C 229.9687194824219 125 234.2108917236328 126.7741470336914 237.7265472412109 130.3224487304688 C 241.2421875 133.8707733154297 242.9999542236328 138.1524047851563 242.9999542236328 143.1673583984375 C 242.9999542236328 148.1822814941406 241.2421875 152.4639129638672 237.7265472412109 156.0122375488281 C 234.2108917236328 159.5605010986328 229.9687194824219 161.3346405029297 224.9999847412109 161.3346405029297 Z"/>
        </g>
      </g>
    </g>
  </g>
</svg>
